# xmcd CD database file generated by MAGIX-FreeDB-player v3.0beta1
#
# Track frame offsets:
#	150
#	16637
#	28415
#	53842
#	74532
#	83401
#	104367
#	117379
#	144744
#	162570
#	191066
#	201049
#	220890
#	237215
#	251200
#	264315
#	277978
#	289506
#
# Disc length: 4088
#
# Revision: 0
# Processed by: cddbd v1.5.2PL0 Copyright (c) Steve Scherf et al.
# Submitted via: MAGIX-FreeDB-player v3.0beta1
#
DISCID=0b0ff612
DTITLE=Spitzer - 202
DYEAR=2016
DGENRE=Hörbuch
TTITLE0=202
TTITLE1=207
TTITLE2=208
TTITLE3=218
TTITLE4=206
TTITLE5=215
TTITLE6=216
TTITLE7=217
TTITLE8=209
TTITLE9=201
TTITLE10=211
TTITLE11=212
TTITLE12=214
TTITLE13=213
TTITLE14=205
TTITLE15=204
TTITLE16=203
TTITLE17=210
EXTD=
EXTT0=
EXTT1=
EXTT2=
EXTT3=
EXTT4=
EXTT5=
EXTT6=
EXTT7=
EXTT8=
EXTT9=
EXTT10=
EXTT11=
EXTT12=
EXTT13=
EXTT14=
EXTT15=
EXTT16=
EXTT17=
PLAYORDER=
